<svg xmlns="http://www.w3.org/2000/svg" viewBox="0 0 1073.09 512"><g id="Capa_3" data-name="Capa 3"><rect x="170.97" y="136.97" width="18.31" height="238.19"/><polygon points="207.48 219.06 354.2 365.87 354.2 338.51 207.62 191.93 207.48 219.06"/><polygon points="226.17 255.94 225.4 255.19 221.73 251.53 221.66 251.59 207.48 237.91 207.54 264.82 226.22 283.76 226.22 283.55 299.06 356.62 189.3 355.72 189.3 375.16 317.55 375.16 317.56 375.17 345.37 375.17 226.17 255.97 226.17 255.94"/><polygon points="226.25 301.97 207.58 283.3 207.62 301.87 226.28 320.52 226.25 301.97"/><polygon points="335.83 136.97 189.3 136.97 189.3 155.28 335.83 155.3 335.83 184.53 277.15 243.21 290.1 256.16 354.2 191.94 354.2 190.48 354.2 166.15 354.2 136.97 335.83 136.97"/><path d="M488.55,264.33l-26.36-37.79a43.55,43.55,0,0,1-5,.19H428.09v37.6H404.14v-129h53.08c33.91,0,54.92,17.33,54.92,45.89,0,19.54-9.95,33.92-27.46,40.73l29.67,42.4ZM456.11,155.59h-28V207h28c21,0,31.88-9.59,31.88-25.81S477.12,155.59,456.11,155.59Z"/><path d="M529.64,199.82c0-38.15,29.49-66.35,69.49-66.35s69.48,28,69.48,66.35-29.49,66.35-69.48,66.35S529.64,238,529.64,199.82Zm114.83,0c0-26.36-19.36-45.34-45.34-45.34s-45.34,19-45.34,45.34,19.35,45.34,45.34,45.34S644.47,226.18,644.47,199.82Z"/><path d="M683.17,250.69l8.29-18.62c10.32,8.3,26.73,14.2,42.58,14.2,20.08,0,28.56-7.19,28.56-16.78,0-27.83-76.67-9.58-76.67-57.5,0-20.83,16.59-38.52,52-38.52,15.48,0,31.7,4.05,42.94,11.43l-7.56,18.61a71.66,71.66,0,0,0-35.57-10.14c-19.9,0-28,7.74-28,17.51,0,27.46,76.49,9.59,76.49,57,0,20.65-16.78,38.34-52.16,38.34C714,266.17,693.86,259.9,683.17,250.69Z"/><path d="M799.09,250.69l8.3-18.62c10.32,8.3,26.72,14.2,42.57,14.2,20.09,0,28.57-7.19,28.57-16.78,0-27.83-76.67-9.58-76.67-57.5,0-20.83,16.59-38.52,52-38.52,15.49,0,31.7,4.05,42.94,11.43l-7.55,18.61a71.69,71.69,0,0,0-35.57-10.14c-19.91,0-28,7.74-28,17.51,0,27.46,76.49,9.59,76.49,57,0,20.65-16.77,38.34-52.16,38.34C829.87,266.17,809.78,259.9,799.09,250.69Z"/><path d="M489.35,296.48v82H481V312.89L448.79,368.1h-4.1l-32.23-54.86v65.29h-8.32v-82h7.15l35.63,60.84,35.28-60.84Z"/><path d="M567.53,356.61H521.81L512,378.53h-9l37.51-82H549l37.51,82h-9.15Zm-3.17-7-19.69-44.07L525,349.58Z"/><path d="M685.32,296.48v82H677V312.89L644.77,368.1h-4.1l-32.24-54.86v65.29h-8.32v-82h7.15l35.63,60.84,35.28-60.84Z"/><path d="M763.5,356.61H717.79l-9.85,21.92h-9l37.5-82H745l37.51,82h-9.14Zm-3.16-7-19.7-44.07L721,349.58Z"/><path d="M864.65,296.48v82H857.5L804.76,312v66.58h-8.68v-82h7.15l52.87,66.58V296.48Z"/><path d="M891.37,296.48H900v82h-8.67Z"/></g></svg>