<svg xmlns="http://www.w3.org/2000/svg" viewBox="0 0 1199.05 455.08"><defs><style>.cls-1{fill:#fff;}</style></defs><g id="Capa_3" data-name="Capa 3"><polygon class="cls-1" points="167.22 181.75 364.36 379 364.36 335.32 167.45 138.41 167.22 181.75"/><polygon class="cls-1" points="197.36 287.63 167.34 257.61 167.41 289.83 197.41 319.82 197.36 287.63"/><polygon class="cls-1" points="143.51 70.63 119.58 70.63 119.58 387.13 143.51 387.13 356.81 387.14 190.64 220.97 188.56 219.06 188.53 219.1 167.22 198.54 167.31 241.47 192.5 267 197.32 271.63 197.32 271.58 282.73 357.24 149.12 356.15 149.12 100.17 334.74 100.19 334.74 134.35 256.99 212.1 277.88 232.99 364.36 146.36 364.36 70.63 149.12 70.63 143.51 70.63"/><path class="cls-1" d="M460.8,193.41H496c1.66,0,3.37,0,5.11-.11l34.31,49.18H576l-39.83-56.89c22.19-9.92,34.35-29.11,34.35-54.41,0-38.68-28.55-62.71-74.5-62.71h-72.1v174H460.8Zm0-92.85h33.74c17.7,0,38.8,5.32,38.8,30.62,0,25.5-21.1,30.86-38.8,30.86H460.8Z"/><path class="cls-1" d="M681.2,244.89c54.18,0,93.5-37.61,93.5-89.42s-39.32-89.41-93.5-89.41c-53.31,0-93.51,38.44-93.51,89.41S627.89,244.89,681.2,244.89Zm0-145.77c32.65,0,56.35,23.7,56.35,56.35s-23.7,56.36-56.35,56.36-56.36-23.7-56.36-56.36S648.54,99.12,681.2,99.12Z"/><path class="cls-1" d="M866,139.93c-20.21-4.81-37.66-9-37.66-22.22,0-12.73,12.3-20,33.75-20,14.91,0,30.89,4.56,45,12.84l2.81,1.65,12-29.46-1.93-1.27c-14.69-9.63-36.22-15.38-57.6-15.38-52.14,0-70.65,28.6-70.65,53.09,0,37.72,34.53,45.95,62.27,52.56,20.28,4.83,37.8,9,37.8,22.49,0,12.3-12.24,19.07-34.47,19.07-19.14,0-40.26-7-53.8-17.9l-2.85-2.29-13.16,29.55L789,224c14.72,12.69,41.51,20.89,68.23,20.89,52.33,0,70.89-28.47,70.89-52.85C928.16,154.71,893.7,146.52,866,139.93Z"/><path class="cls-1" d="M1008.57,213.27c-19.14,0-40.26-7-53.8-17.9l-2.85-2.29-13.17,29.55,1.59,1.37c14.72,12.69,41.5,20.89,68.23,20.89,52.33,0,70.89-28.47,70.89-52.85,0-37.33-34.46-45.52-62.16-52.11-20.21-4.81-37.66-9-37.66-22.22,0-12.73,12.3-20,33.74-20,14.92,0,30.9,4.56,45,12.84l2.81,1.65,12-29.46-1.94-1.27c-14.68-9.63-36.21-15.38-57.59-15.38-52.15,0-70.65,28.6-70.65,53.09,0,37.72,34.53,45.95,62.27,52.56,20.28,4.83,37.8,9,37.8,22.49C1043,206.5,1030.8,213.27,1008.57,213.27Z"/><polygon class="cls-1" points="482.54 355.43 437.66 278.81 423.89 278.81 423.89 391.54 440.39 391.54 440.39 313.87 478.03 377.92 486.61 377.92 524.25 313.47 524.25 391.54 540.74 391.54 540.74 278.81 526.97 278.81 482.54 355.43"/><path class="cls-1" d="M602.81,278.81,551.28,391.54h18l12.85-28.61h56L651,391.54h18.15L617.6,278.81Zm-14,69.3,21.36-47.79,21.35,47.79Z"/><polygon class="cls-1" points="738.3 355.43 693.43 278.81 679.66 278.81 679.66 391.54 696.16 391.54 696.16 313.87 733.8 377.92 742.38 377.92 780.02 313.47 780.02 391.54 796.51 391.54 796.51 278.81 782.74 278.81 738.3 355.43"/><path class="cls-1" d="M858.58,278.81,807.05,391.54h18l12.85-28.61h56l12.85,28.61H924.9L873.37,278.81Zm-14,69.3,21.35-47.79,21.36,47.79Z"/><polygon class="cls-1" points="1013.76 360.44 948.94 278.81 935.43 278.81 935.43 391.54 952.39 391.54 952.39 309.92 1017.05 391.54 1030.56 391.54 1030.56 278.81 1013.76 278.81 1013.76 360.44"/><rect class="cls-1" x="1059.8" y="278.81" width="16.96" height="112.72"/></g></svg>